<svg width="137" height="59" viewBox="0 0 137 59" fill="none" xmlns="http://www.w3.org/2000/svg">
<path d="M56.0703 33C56.0312 33.3125 55.901 33.5794 55.6797 33.8008C55.4583 34.0091 55.25 34.237 55.0547 34.4844C54.8203 34.7448 54.625 34.9661 54.4688 35.1484C54.3255 35.3177 54.1953 35.487 54.0781 35.6562C53.9609 35.8255 53.8503 36.0078 53.7461 36.2031C53.6549 36.3984 53.5508 36.6458 53.4336 36.9453C53.4076 36.9974 53.375 37.0365 53.3359 37.0625C53.3099 37.0885 53.2969 37.1471 53.2969 37.2383C53.2708 37.5247 53.1016 37.7396 52.7891 37.8828C52.4896 38.026 52.1185 38.1237 51.6758 38.1758C51.2461 38.2409 50.7839 38.2734 50.2891 38.2734C49.8073 38.2734 49.3776 38.2734 49 38.2734C48.7396 38.2734 48.4661 38.2669 48.1797 38.2539C47.9062 38.2539 47.6393 38.2539 47.3789 38.2539C47.1185 38.2539 46.8841 38.2799 46.6758 38.332C46.4805 38.3841 46.3047 38.4102 46.1484 38.4102C45.8099 38.4102 45.4974 38.3841 45.2109 38.332C44.9245 38.2799 44.651 38.2539 44.3906 38.2539C44.1172 38.2669 43.8698 38.2995 43.6484 38.3516C43.4401 38.4036 43.2318 38.4557 43.0234 38.5078C42.8151 38.5729 42.6068 38.625 42.3984 38.6641C42.2031 38.7161 41.9883 38.7422 41.7539 38.7422C41.6628 38.7422 41.5846 38.7292 41.5195 38.7031C41.4544 38.6771 41.4219 38.5924 41.4219 38.4492C41.4219 38.293 41.5 38.1888 41.6562 38.1367C41.8255 38.0846 42.0078 38.0391 42.2031 38C42.4115 37.9609 42.5938 37.9089 42.75 37.8438C42.9193 37.7786 43.0039 37.6615 43.0039 37.4922V37.2969C43.0039 37.2318 43.0039 37.1602 43.0039 37.082C43.0169 37.0039 43.043 36.9128 43.082 36.8086C43.0951 36.7695 43.1471 36.724 43.2383 36.6719C43.3294 36.6068 43.375 36.5352 43.375 36.457C43.375 36.431 43.3685 36.3984 43.3555 36.3594C43.3555 36.3203 43.3555 36.2878 43.3555 36.2617C43.3555 36.2487 43.362 36.2357 43.375 36.2227C43.5052 36.1055 43.5898 35.8776 43.6289 35.5391C43.681 35.1875 43.7135 34.7969 43.7266 34.3672C43.7396 33.9375 43.7461 33.5013 43.7461 33.0586C43.7461 32.6029 43.7656 32.1992 43.8047 31.8477C43.8438 31.5612 43.9154 31.2747 44.0195 30.9883C44.1237 30.7018 44.2018 30.4089 44.2539 30.1094C44.2539 30.0573 44.2604 29.9336 44.2734 29.7383C44.2995 29.543 44.319 29.3346 44.332 29.1133C44.3451 28.8919 44.3581 28.6771 44.3711 28.4688C44.3841 28.2474 44.3906 28.0911 44.3906 28C44.3906 27.9219 44.3581 27.8698 44.293 27.8438C44.2409 27.8047 44.1823 27.7852 44.1172 27.7852C43.974 27.7852 43.8112 27.8372 43.6289 27.9414C43.4596 28.0456 43.2839 28.1628 43.1016 28.293C42.9193 28.4232 42.737 28.5404 42.5547 28.6445C42.3724 28.7487 42.2096 28.8008 42.0664 28.8008C41.9622 28.8008 41.9036 28.7682 41.8906 28.7031C41.8776 28.638 41.8711 28.5729 41.8711 28.5078C41.8711 28.3516 41.9297 28.2148 42.0469 28.0977C42.1641 27.9674 42.3073 27.8438 42.4766 27.7266C42.6458 27.6094 42.8216 27.4987 43.0039 27.3945C43.1992 27.2773 43.3685 27.1602 43.5117 27.043C43.5768 26.9779 43.6094 26.9128 43.6094 26.8477C43.6094 26.7826 43.6419 26.75 43.707 26.75C43.7331 26.75 43.7656 26.7565 43.8047 26.7695C43.8438 26.7695 43.8763 26.7695 43.9023 26.7695C43.9674 26.7695 44.0065 26.724 44.0195 26.6328C44.0326 26.5286 44.0651 26.4635 44.1172 26.4375C44.2344 26.3984 44.332 26.3659 44.4102 26.3398C44.4883 26.3008 44.5534 26.2292 44.6055 26.125C44.6576 26.0078 44.6966 25.832 44.7227 25.5977C44.7487 25.3633 44.7617 25.0182 44.7617 24.5625C44.7617 24.1198 44.8138 23.7747 44.918 23.5273C45.0352 23.2669 45.1068 23.026 45.1328 22.8047C45.1589 22.5964 45.1784 22.3685 45.1914 22.1211C45.2044 21.8737 45.2109 21.6263 45.2109 21.3789C45.224 21.1185 45.2305 20.8776 45.2305 20.6562C45.2435 20.4219 45.2565 20.2135 45.2695 20.0312C45.2956 19.7578 45.3346 19.4909 45.3867 19.2305C45.4388 18.9701 45.4648 18.7487 45.4648 18.5664C45.4648 18.306 45.3802 18.1367 45.2109 18.0586C45.0417 17.9805 44.8724 17.9414 44.7031 17.9414C44.5599 17.9414 44.4036 17.9544 44.2344 17.9805C44.0781 17.9935 43.9284 18 43.7852 18C43.6419 18 43.5052 17.9805 43.375 17.9414C43.2578 17.9023 43.1602 17.8177 43.082 17.6875C43.1471 17.4792 43.2708 17.3294 43.4531 17.2383C43.6484 17.1471 43.8698 17.0885 44.1172 17.0625C44.3776 17.0234 44.6445 17.0104 44.918 17.0234C45.2044 17.0234 45.4648 17.0104 45.6992 16.9844C46.168 16.9453 46.6497 16.9193 47.1445 16.9062C47.6393 16.8932 48.1341 16.8672 48.6289 16.8281C48.9284 16.8021 49.2214 16.75 49.5078 16.6719C49.8073 16.5807 50.1198 16.5352 50.4453 16.5352C50.5755 16.5352 50.6992 16.5417 50.8164 16.5547C50.9466 16.5547 51.0833 16.5547 51.2266 16.5547C51.6302 16.5547 51.9948 16.5026 52.3203 16.3984C52.6589 16.2943 53.043 16.2422 53.4727 16.2422C53.5638 16.2422 53.6224 16.2487 53.6484 16.2617C53.6875 16.2747 53.7135 16.2943 53.7266 16.3203C53.7396 16.3333 53.7526 16.3464 53.7656 16.3594C53.7786 16.3724 53.8047 16.3789 53.8438 16.3789C53.8698 16.3789 53.8828 16.3724 53.8828 16.3594C53.8958 16.3464 53.9089 16.3333 53.9219 16.3203C53.9349 16.2943 53.9544 16.2747 53.9805 16.2617C54.0195 16.2487 54.0911 16.2422 54.1953 16.2422C54.2995 16.2422 54.3971 16.2487 54.4883 16.2617C54.5924 16.2617 54.6966 16.2617 54.8008 16.2617C54.918 16.2617 55.0221 16.2422 55.1133 16.2031C55.2044 16.1641 55.2891 16.125 55.3672 16.0859C55.4583 16.0469 55.5495 16.0078 55.6406 15.9688C55.7448 15.9297 55.8685 15.9102 56.0117 15.9102C56.2721 15.9102 56.4544 15.9753 56.5586 16.1055C56.6758 16.2357 56.7344 16.3984 56.7344 16.5938C56.7344 16.7891 56.6953 17.0104 56.6172 17.2578C56.5391 17.4922 56.4479 17.7331 56.3438 17.9805C56.2396 18.2148 56.1289 18.4427 56.0117 18.6641C55.9076 18.8724 55.8229 19.0417 55.7578 19.1719C55.7057 19.276 55.6602 19.3997 55.6211 19.543C55.5951 19.6732 55.5495 19.7839 55.4844 19.875C55.4193 19.9531 55.3411 20.0312 55.25 20.1094C55.1589 20.1745 55.0938 20.2461 55.0547 20.3242C55.0156 20.3633 54.9831 20.4414 54.957 20.5586C54.944 20.6628 54.9245 20.7734 54.8984 20.8906C54.8724 20.9948 54.8333 21.0924 54.7812 21.1836C54.7292 21.2617 54.6576 21.3008 54.5664 21.3008C54.4492 21.3008 54.3581 21.2617 54.293 21.1836C54.2279 21.0924 54.1953 20.9883 54.1953 20.8711C54.1953 20.6107 54.2409 20.3242 54.332 20.0117C54.4232 19.6862 54.4688 19.3346 54.4688 18.957C54.4688 18.7357 54.4362 18.5208 54.3711 18.3125C54.319 18.0911 54.1953 17.9805 54 17.9805C53.8438 17.9805 53.6419 18.0065 53.3945 18.0586C53.1471 18.1107 52.9714 18.1367 52.8672 18.1367C52.6198 18.1367 52.2747 18.1172 51.832 18.0781C51.4023 18.0391 50.9596 18.0195 50.5039 18.0195C50.0872 18.0195 49.7357 18.0521 49.4492 18.1172C49.1628 18.1693 48.9219 18.306 48.7266 18.5273C48.5443 18.7357 48.3945 19.0547 48.2773 19.4844C48.1732 19.901 48.0951 20.474 48.043 21.2031V21.4375C48.056 21.6198 48.0104 21.9062 47.9062 22.2969C47.8021 22.6745 47.75 23.0911 47.75 23.5469V23.8398C47.75 23.9701 47.724 24.0807 47.6719 24.1719C47.6328 24.25 47.6133 24.2826 47.6133 24.2695C47.6133 24.3346 47.6328 24.4323 47.6719 24.5625C47.724 24.6797 47.75 24.8229 47.75 24.9922C47.75 25.0182 47.7174 25.0833 47.6523 25.1875C47.6003 25.2786 47.5742 25.3698 47.5742 25.4609C47.5742 25.526 47.6784 25.5846 47.8867 25.6367C48.1081 25.6888 48.3685 25.7344 48.668 25.7734C48.9674 25.7995 49.2734 25.8255 49.5859 25.8516C49.8984 25.8646 50.1589 25.8711 50.3672 25.8711C50.5495 25.8711 50.7383 25.8451 50.9336 25.793C51.1419 25.7409 51.3828 25.7148 51.6562 25.7148C51.7865 25.7148 51.9102 25.7214 52.0273 25.7344C52.1576 25.7474 52.2747 25.7539 52.3789 25.7539C52.457 25.7539 52.5156 25.7474 52.5547 25.7344C52.9193 25.6432 53.1927 25.5195 53.375 25.3633C53.5703 25.207 53.7461 25.0508 53.9023 24.8945C54.0586 24.7383 54.2344 24.6016 54.4297 24.4844C54.638 24.3542 54.9375 24.276 55.3281 24.25C55.3802 24.3151 55.4062 24.3932 55.4062 24.4844C55.4062 24.6276 55.3411 24.7643 55.2109 24.8945C55.0938 25.0247 54.9896 25.1549 54.8984 25.2852C54.8724 25.3112 54.8464 25.3828 54.8203 25.5C54.8073 25.6172 54.7812 25.6953 54.7422 25.7344C54.6771 25.7995 54.5859 25.8255 54.4688 25.8125C54.3516 25.7865 54.2539 25.806 54.1758 25.8711C54.1107 25.8971 54.0586 25.9427 54.0195 26.0078C53.9935 26.0599 53.9479 26.112 53.8828 26.1641C53.4792 26.3984 53.1667 26.6198 52.9453 26.8281C52.724 27.0365 52.5286 27.2188 52.3594 27.375C52.1901 27.5182 52.0143 27.6354 51.832 27.7266C51.6497 27.8047 51.4023 27.8438 51.0898 27.8438C50.5039 27.8438 49.918 27.7917 49.332 27.6875C48.7591 27.5833 48.2253 27.5312 47.7305 27.5312C47.4049 27.5312 47.1966 27.6419 47.1055 27.8633C47.0143 28.0716 46.9688 28.3255 46.9688 28.625C46.9688 28.7292 46.9753 28.8268 46.9883 28.918C47.0013 28.9961 47.0078 29.0677 47.0078 29.1328C47.0078 29.1979 46.9948 29.2891 46.9688 29.4062C46.9427 29.5104 46.9102 29.6276 46.8711 29.7578C46.8451 29.875 46.819 29.9922 46.793 30.1094C46.7669 30.2135 46.7474 30.3047 46.7344 30.3828C46.7083 30.6042 46.6823 30.819 46.6562 31.0273C46.6302 31.2357 46.5977 31.4766 46.5586 31.75C46.5326 32.0104 46.4935 32.3099 46.4414 32.6484C46.4023 32.987 46.3568 33.3971 46.3047 33.8789C46.2656 34.2565 46.2201 34.569 46.168 34.8164C46.1159 35.0638 46.0508 35.2982 45.9727 35.5195C45.8945 35.7279 45.7969 35.9427 45.6797 36.1641C45.5755 36.3724 45.4388 36.6328 45.2695 36.9453C45.3086 36.9453 45.3411 36.9518 45.3672 36.9648C45.4062 36.9648 45.4388 36.9648 45.4648 36.9648C45.6341 36.9648 45.8034 36.9388 45.9727 36.8867C46.1549 36.8346 46.4089 36.763 46.7344 36.6719C46.8125 36.6198 46.8906 36.5677 46.9688 36.5156C47.0339 36.4766 47.099 36.444 47.1641 36.418C47.2292 36.3789 47.2943 36.3594 47.3594 36.3594C47.3984 36.3594 47.457 36.3659 47.5352 36.3789C47.6133 36.3919 47.6849 36.3984 47.75 36.3984C47.8281 36.3984 47.8802 36.3854 47.9062 36.3594C47.9453 36.3203 48.0039 36.3008 48.082 36.3008C48.2383 36.3008 48.5443 36.3268 49 36.3789C49.4557 36.418 49.9961 36.4375 50.6211 36.4375C50.8685 36.4375 51.1029 36.431 51.3242 36.418C51.5586 36.3919 51.7799 36.3268 51.9883 36.2227C52.0143 36.1966 52.0534 36.151 52.1055 36.0859C52.1706 36.0208 52.2357 35.9492 52.3008 35.8711C52.3659 35.793 52.431 35.7214 52.4961 35.6562C52.5742 35.5911 52.6458 35.5391 52.7109 35.5C52.7891 35.4479 52.8867 35.4284 53.0039 35.4414C53.1211 35.4414 53.2188 35.4089 53.2969 35.3438C53.401 35.2656 53.4922 35.1615 53.5703 35.0312C53.6484 34.888 53.7526 34.7513 53.8828 34.6211L54.8984 33.6055C54.9505 33.5534 55.0026 33.4948 55.0547 33.4297C55.1068 33.3516 55.1654 33.2799 55.2305 33.2148C55.3086 33.1497 55.3997 33.0977 55.5039 33.0586C55.6081 33.0195 55.7383 33 55.8945 33H56.0703ZM77.5352 4.23047V4.21094C77.3138 4.67969 77.1315 5.05078 76.9883 5.32422C76.8581 5.59766 76.7344 5.82552 76.6172 6.00781C76.5 6.17708 76.3893 6.32682 76.2852 6.45703C76.181 6.58724 76.0508 6.75 75.8945 6.94531C75.8164 6.97135 75.6797 7.07552 75.4844 7.25781C75.2891 7.4401 75.0807 7.64193 74.8594 7.86328C74.638 8.08464 74.4297 8.28646 74.2344 8.46875C74.0391 8.65104 73.9023 8.75521 73.8242 8.78125C73.7852 8.89844 73.7005 9.01562 73.5703 9.13281C73.4531 9.25 73.3099 9.36068 73.1406 9.46484C72.9714 9.56901 72.7956 9.67969 72.6133 9.79688C72.431 9.90104 72.2617 10.0052 72.1055 10.1094C71.8451 10.2917 71.6237 10.4479 71.4414 10.5781C71.2721 10.6953 71.1029 10.806 70.9336 10.9102C70.7643 11.0143 70.582 11.112 70.3867 11.2031C70.1914 11.2812 69.944 11.3659 69.6445 11.457C69.0977 11.6263 68.4857 11.7695 67.8086 11.8867C67.1315 12.0039 66.4805 12.0625 65.8555 12.0625C65.4518 12.0625 65.0482 12.043 64.6445 12.0039C64.2409 11.9518 63.9349 11.8737 63.7266 11.7695C63.6484 11.8477 63.6094 11.8997 63.6094 11.9258C63.6094 11.9779 63.6419 12.0234 63.707 12.0625C63.7721 12.0885 63.8242 12.1341 63.8633 12.1992C63.9154 12.2773 63.9609 12.375 64 12.4922C64.0391 12.6094 64.0911 12.707 64.1562 12.7852C64.2865 12.9544 64.4362 13.1042 64.6055 13.2344C64.7878 13.3646 64.931 13.5078 65.0352 13.6641C65.1003 13.7422 65.1458 13.8594 65.1719 14.0156C65.2109 14.1589 65.263 14.2826 65.3281 14.3867C65.3932 14.5039 65.4648 14.6081 65.543 14.6992C65.6341 14.7773 65.7122 14.8685 65.7773 14.9727C66.0247 15.4154 66.2396 15.8255 66.4219 16.2031C66.6042 16.5807 66.8255 16.9974 67.0859 17.4531C67.138 17.5573 67.2096 17.6549 67.3008 17.7461C67.3919 17.8372 67.4635 17.9349 67.5156 18.0391C67.5547 18.1432 67.5742 18.2604 67.5742 18.3906C67.5872 18.5208 67.6198 18.6445 67.6719 18.7617C67.8281 19.2044 67.9974 19.6667 68.1797 20.1484C68.375 20.6172 68.5443 21.0794 68.6875 21.5352C68.7526 21.7826 68.7982 22.0495 68.8242 22.3359C68.8633 22.6224 68.9154 22.8893 68.9805 23.1367C69.0977 23.6055 69.2083 24.0156 69.3125 24.3672C69.4167 24.7188 69.4688 25.1419 69.4688 25.6367C69.4688 25.8581 69.4622 26.0794 69.4492 26.3008C69.4362 26.5221 69.4232 26.737 69.4102 26.9453C69.3841 27.1406 69.319 27.3359 69.2148 27.5312C69.1237 27.7266 69.0846 27.9349 69.0977 28.1562C69.0977 28.2604 69.1042 28.3646 69.1172 28.4688C69.1302 28.5599 69.1367 28.651 69.1367 28.7422C69.1367 29.0156 69.0977 29.2956 69.0195 29.582C68.9414 29.8555 68.8503 30.1419 68.7461 30.4414C68.6419 30.7279 68.5312 31.0208 68.4141 31.3203C68.2969 31.6068 68.1927 31.8932 68.1016 32.1797C68.0495 32.362 67.9648 32.5638 67.8477 32.7852C67.7435 33.0065 67.6328 33.2214 67.5156 33.4297C67.3984 33.638 67.2943 33.8268 67.2031 33.9961C67.125 34.1654 67.0859 34.2891 67.0859 34.3672C67.0859 34.4323 67.0534 34.4844 66.9883 34.5234C66.9362 34.5495 66.8646 34.5755 66.7734 34.6016C66.6953 34.6276 66.6107 34.6602 66.5195 34.6992C66.4414 34.7253 66.3828 34.7643 66.3438 34.8164C66.2135 34.9987 66.1159 35.2266 66.0508 35.5C65.9987 35.7604 65.9076 36.0143 65.7773 36.2617C65.7643 36.2747 65.7188 36.3268 65.6406 36.418C65.5625 36.4961 65.4779 36.5938 65.3867 36.7109C65.2956 36.8151 65.2109 36.9193 65.1328 37.0234C65.0677 37.1276 65.0352 37.2122 65.0352 37.2773C65.0352 37.3424 65.0026 37.3945 64.9375 37.4336C64.8724 37.4596 64.7878 37.4922 64.6836 37.5312C64.5924 37.5703 64.4818 37.6159 64.3516 37.668C64.2344 37.7201 64.1237 37.7917 64.0195 37.8828C63.9674 37.9219 63.9219 37.9805 63.8828 38.0586C63.8438 38.1497 63.7917 38.2344 63.7266 38.3125C63.6745 38.3906 63.6094 38.4622 63.5312 38.5273C63.4531 38.5924 63.3555 38.625 63.2383 38.625C63.1732 38.625 63.0951 38.6185 63.0039 38.6055C62.9258 38.5924 62.8542 38.5859 62.7891 38.5859C62.6849 38.5859 62.6003 38.638 62.5352 38.7422C62.4701 38.8464 62.3854 38.8984 62.2812 38.8984C62.1641 38.8984 62.0794 38.8789 62.0273 38.8398C61.9883 38.8138 61.9492 38.7747 61.9102 38.7227C61.8841 38.6836 61.8581 38.638 61.832 38.5859C61.806 38.5339 61.7539 38.4883 61.6758 38.4492C61.5326 38.3841 61.3633 38.3516 61.168 38.3516C60.9727 38.3516 60.849 38.3385 60.7969 38.3125C60.7188 38.2474 60.6211 38.0911 60.5039 37.8438C60.3997 37.5964 60.263 37.362 60.0938 37.1406C59.9896 37.0234 59.8919 36.9258 59.8008 36.8477C59.7227 36.7695 59.6445 36.6979 59.5664 36.6328C59.4883 36.5547 59.4167 36.4701 59.3516 36.3789C59.2995 36.2747 59.2539 36.138 59.2148 35.9688C59.1888 35.8646 59.1367 35.793 59.0586 35.7539C58.9935 35.7148 58.9479 35.6432 58.9219 35.5391C58.8307 35.2917 58.7721 35.0768 58.7461 34.8945C58.7201 34.7122 58.6745 34.4844 58.6094 34.2109C58.6094 34.1589 58.5898 34.0807 58.5508 33.9766C58.5247 33.8594 58.4922 33.7422 58.4531 33.625C58.4271 33.4948 58.401 33.3711 58.375 33.2539C58.349 33.1237 58.3359 33.0195 58.3359 32.9414C58.3359 32.5768 58.3555 32.2122 58.3945 31.8477C58.4466 31.4831 58.4727 31.1445 58.4727 30.832C58.4727 30.6628 58.4792 30.5 58.4922 30.3438C58.5052 30.1875 58.5443 30.0182 58.6094 29.8359C58.6354 29.7969 58.6875 29.7253 58.7656 29.6211C58.8438 29.5169 58.8958 29.4453 58.9219 29.4062C59.013 29.0807 59.1107 28.7812 59.2148 28.5078C59.319 28.2214 59.4427 27.9284 59.5859 27.6289C59.7292 27.3164 59.8984 26.9714 60.0938 26.5938C60.2891 26.2031 60.5234 25.7344 60.7969 25.1875C60.8229 25.1354 60.8424 25.0638 60.8555 24.9727C60.8815 24.8685 60.9141 24.7969 60.9531 24.7578C60.9661 24.7448 60.9987 24.7253 61.0508 24.6992C61.1159 24.6732 61.181 24.6471 61.2461 24.6211C61.3242 24.582 61.3893 24.5495 61.4414 24.5234C61.5065 24.4844 61.5391 24.4453 61.5391 24.4062C61.5391 24.3802 61.5326 24.3477 61.5195 24.3086C61.5195 24.2695 61.5195 24.237 61.5195 24.2109C61.5195 24.2109 61.5781 24.1458 61.6953 24.0156C61.8125 23.8854 61.9492 23.7357 62.1055 23.5664C62.2617 23.3841 62.418 23.2083 62.5742 23.0391C62.7435 22.8698 62.8802 22.7591 62.9844 22.707C63.0885 22.6549 63.1927 22.6354 63.2969 22.6484C63.401 22.6484 63.4987 22.6224 63.5898 22.5703C63.707 22.4792 63.8112 22.349 63.9023 22.1797C63.9935 22.0104 64.0781 21.8932 64.1562 21.8281C64.2734 21.724 64.4167 21.6133 64.5859 21.4961C64.7552 21.3789 64.9115 21.2617 65.0547 21.1445C65.2109 21.0273 65.3411 20.9232 65.4453 20.832C65.5625 20.7279 65.6211 20.6432 65.6211 20.5781C65.6211 20.4089 65.5625 20.207 65.4453 19.9727C65.3281 19.7383 65.1914 19.5104 65.0352 19.2891C64.8919 19.0677 64.7617 18.8724 64.6445 18.7031C64.5273 18.5208 64.4688 18.3971 64.4688 18.332C64.4557 18.2409 64.4102 18.1432 64.332 18.0391C64.2539 17.9349 64.1693 17.8307 64.0781 17.7266C63.987 17.6094 63.9023 17.5052 63.8242 17.4141C63.7591 17.3229 63.7266 17.2383 63.7266 17.1602C63.7266 17.082 63.6875 16.9909 63.6094 16.8867C63.5312 16.7695 63.4466 16.6523 63.3555 16.5352C63.2643 16.418 63.1797 16.3073 63.1016 16.2031C63.0234 16.099 62.9844 16.0143 62.9844 15.9492C62.9844 15.6888 62.8346 15.3893 62.5352 15.0508C62.2487 14.6992 61.9167 14.2891 61.5391 13.8203C61.526 13.8073 61.5195 13.7878 61.5195 13.7617C61.5195 13.7357 61.5195 13.7031 61.5195 13.6641C61.5326 13.625 61.5391 13.5924 61.5391 13.5664C61.5391 13.5013 61.4609 13.3971 61.3047 13.2539C61.1615 13.1107 60.9987 12.9544 60.8164 12.7852C60.6341 12.6159 60.4648 12.4531 60.3086 12.2969C60.1654 12.1276 60.0938 11.9974 60.0938 11.9062C60.0807 11.7891 59.9701 11.6458 59.7617 11.4766C59.5664 11.3073 59.3516 11.1315 59.1172 10.9492C58.8828 10.7539 58.668 10.5651 58.4727 10.3828C58.2773 10.1875 58.1797 10.0182 58.1797 9.875C58.2188 9.6276 58.2904 9.48438 58.3945 9.44531C58.5117 9.40625 58.6875 9.35417 58.9219 9.28906C59 9.27604 59.1042 9.23698 59.2344 9.17188C59.3646 9.10677 59.5013 9.04167 59.6445 8.97656C59.7878 8.89844 59.9375 8.83333 60.0938 8.78125C60.25 8.72917 60.3932 8.70312 60.5234 8.70312C60.7448 8.70312 60.9857 8.7487 61.2461 8.83984C61.5195 8.91797 61.7604 9.01562 61.9688 9.13281C62.0078 9.15885 62.0599 9.21745 62.125 9.30859C62.1901 9.38672 62.2422 9.43229 62.2812 9.44531C62.4635 9.51042 62.6719 9.53646 62.9062 9.52344C63.1406 9.4974 63.3685 9.51693 63.5898 9.58203C63.681 9.60807 63.7591 9.66667 63.8242 9.75781C63.8893 9.84896 63.974 9.89453 64.0781 9.89453C64.1042 9.89453 64.1302 9.89453 64.1562 9.89453C64.1953 9.88151 64.2279 9.875 64.2539 9.875C64.306 9.875 64.4297 9.89453 64.625 9.93359C64.8203 9.95964 65.0482 9.99219 65.3086 10.0312C65.582 10.0703 65.862 10.1094 66.1484 10.1484C66.4479 10.1745 66.7148 10.1875 66.9492 10.1875C67.2747 10.1875 67.6589 10.1549 68.1016 10.0898C68.5443 10.0247 68.987 9.9401 69.4297 9.83594C69.8724 9.71875 70.2826 9.58203 70.6602 9.42578C71.0508 9.26953 71.3503 9.10026 71.5586 8.91797C71.6628 8.82682 71.7539 8.72266 71.832 8.60547C71.9102 8.48828 72.0078 8.3776 72.125 8.27344C72.3073 8.10417 72.5026 7.96745 72.7109 7.86328C72.9323 7.74609 73.1536 7.58984 73.375 7.39453C73.7135 7.09505 74.0977 6.74349 74.5273 6.33984C74.9701 5.92318 75.3542 5.51953 75.6797 5.12891C75.7578 5.03776 75.862 4.90755 75.9922 4.73828C76.1224 4.55599 76.2526 4.35417 76.3828 4.13281C76.513 3.89844 76.6367 3.65755 76.7539 3.41016C76.8711 3.14974 76.9622 2.90234 77.0273 2.66797C77.0534 2.40755 77.112 2.20573 77.2031 2.0625C77.3073 1.90625 77.4115 1.82812 77.5156 1.82812C77.724 1.82812 77.8281 2.05599 77.8281 2.51172C77.8281 2.51172 77.8151 2.60286 77.7891 2.78516C77.763 2.95443 77.7305 3.14974 77.6914 3.37109C77.6654 3.57943 77.6328 3.77474 77.5938 3.95703C77.5677 4.13932 77.5482 4.23047 77.5352 4.23047ZM67.2227 26.0664C67.2227 25.9492 67.2096 25.8646 67.1836 25.8125C67.1706 25.7474 67.1445 25.6888 67.1055 25.6367C67.0794 25.5716 67.0469 25.4935 67.0078 25.4023C66.9818 25.3112 66.9557 25.1875 66.9297 25.0312C66.8776 24.7708 66.8581 24.5104 66.8711 24.25C66.8841 23.9766 66.8581 23.7031 66.793 23.4297C66.7018 23.0781 66.5977 22.7721 66.4805 22.5117C66.3633 22.2383 66.2917 22.1016 66.2656 22.1016C66.0833 22.1016 65.9401 22.1471 65.8359 22.2383C65.7318 22.3294 65.6602 22.388 65.6211 22.4141C65.5039 22.4792 65.3607 22.5378 65.1914 22.5898C65.0352 22.6419 64.8854 22.7266 64.7422 22.8438C64.5859 22.987 64.3841 23.1953 64.1367 23.4688C63.8893 23.7292 63.6484 24.0026 63.4141 24.2891C63.1797 24.5625 62.9779 24.8099 62.8086 25.0312C62.6393 25.2396 62.5482 25.3503 62.5352 25.3633C62.3398 25.8711 62.2031 26.2357 62.125 26.457C62.0599 26.6784 62.0143 26.8477 61.9883 26.9648C61.9622 27.082 61.9427 27.1927 61.9297 27.2969C61.9297 27.388 61.8971 27.5573 61.832 27.8047C61.806 27.9089 61.7474 28.013 61.6562 28.1172C61.5651 28.2083 61.5195 28.3255 61.5195 28.4688C61.5195 28.5599 61.526 28.6445 61.5391 28.7227C61.5521 28.8008 61.5586 28.8789 61.5586 28.957C61.5586 29.0872 61.5326 29.2109 61.4805 29.3281C61.4414 29.4323 61.3958 29.5365 61.3438 29.6406C61.2917 29.7448 61.2396 29.849 61.1875 29.9531C61.1484 30.0573 61.1289 30.168 61.1289 30.2852C61.1289 30.4674 61.1419 30.7018 61.168 30.9883C61.207 31.2747 61.2461 31.5742 61.2852 31.8867C61.3242 32.1862 61.3633 32.4727 61.4023 32.7461C61.4544 33.0195 61.5 33.2214 61.5391 33.3516C61.5391 33.3906 61.5326 33.4297 61.5195 33.4688C61.5195 33.4948 61.5195 33.5273 61.5195 33.5664C61.5195 33.6185 61.5586 33.6966 61.6367 33.8008C61.7279 33.8919 61.793 33.9831 61.832 34.0742C61.9492 34.4128 62.0924 34.7253 62.2617 35.0117C62.431 35.2852 62.6003 35.526 62.7695 35.7344C62.9518 35.9427 63.1276 36.1055 63.2969 36.2227C63.4661 36.3398 63.6094 36.3984 63.7266 36.3984C63.8177 36.3984 63.9414 36.3138 64.0977 36.1445C64.2669 35.9622 64.4427 35.7474 64.625 35.5C64.8203 35.2396 65.0026 34.9727 65.1719 34.6992C65.3542 34.4128 65.5039 34.1589 65.6211 33.9375C65.8034 33.612 65.9857 33.2409 66.168 32.8242C66.3503 32.4076 66.4609 31.9974 66.5 31.5938C66.5 31.5156 66.5195 31.457 66.5586 31.418C66.5977 31.3789 66.6302 31.3464 66.6562 31.3203C66.7214 31.0599 66.7539 30.832 66.7539 30.6367C66.7539 30.4284 66.7669 30.2135 66.793 29.9922C66.806 29.7057 66.8385 29.3932 66.8906 29.0547C66.9427 28.7031 66.9883 28.3516 67.0273 28C67.0794 27.6484 67.125 27.3099 67.1641 26.9844C67.2031 26.6458 67.2227 26.3398 67.2227 26.0664ZM86.3438 33.1367C86.487 33.2799 86.5586 33.4102 86.5586 33.5273C86.5586 33.6055 86.526 33.6836 86.4609 33.7617C86.4089 33.8268 86.3438 33.8919 86.2656 33.957C86.1875 34.0091 86.1094 34.0677 86.0312 34.1328C85.9661 34.1849 85.9206 34.2435 85.8945 34.3086C85.7773 34.5951 85.5755 34.9141 85.2891 35.2656C85.0156 35.6042 84.7357 35.9622 84.4492 36.3398C84.293 36.5482 84.1107 36.8086 83.9023 37.1211C83.707 37.4206 83.4987 37.7005 83.2773 37.9609C83.2513 37.987 83.1992 38.0065 83.1211 38.0195C83.043 38.0456 82.9974 38.0716 82.9844 38.0977C82.8802 38.3581 82.7435 38.6055 82.5742 38.8398C82.418 39.0742 82.1836 39.1914 81.8711 39.1914C81.4935 39.1914 81.207 39.1003 81.0117 38.918C80.8164 38.7487 80.6797 38.5469 80.6016 38.3125C80.5234 38.0781 80.4779 37.8372 80.4648 37.5898C80.4648 37.3424 80.4648 37.1471 80.4648 37.0039C80.4648 36.5352 80.5039 36.0208 80.582 35.4609C80.6602 34.901 80.7448 34.3477 80.8359 33.8008C80.9401 33.2539 81.0312 32.7331 81.1094 32.2383C81.1875 31.7305 81.2266 31.3008 81.2266 30.9492H81.1484C81.0443 30.9492 80.9076 31.0664 80.7383 31.3008C80.569 31.5221 80.3737 31.8021 80.1523 32.1406C79.944 32.4792 79.7161 32.8438 79.4688 33.2344C79.2344 33.625 79 33.9831 78.7656 34.3086C78.6354 34.4779 78.4922 34.6471 78.3359 34.8164C78.1927 34.9857 78.0495 35.1354 77.9062 35.2656C77.776 35.3958 77.6654 35.5 77.5742 35.5781C77.4831 35.6562 77.4375 35.6888 77.4375 35.6758C77.4375 35.7018 77.4375 35.7344 77.4375 35.7734C77.4505 35.8125 77.457 35.8451 77.457 35.8711C77.457 35.9622 77.3984 36.0664 77.2812 36.1836C77.1771 36.2878 77.0599 36.3919 76.9297 36.4961C76.7995 36.5872 76.6758 36.6654 76.5586 36.7305C76.4544 36.7956 76.4023 36.8346 76.4023 36.8477C76.4023 36.8737 76.4023 36.9062 76.4023 36.9453C76.4154 36.9844 76.4219 37.0169 76.4219 37.043C76.4219 37.0951 76.3763 37.1276 76.2852 37.1406C76.207 37.1536 76.1549 37.1797 76.1289 37.2188C76.0898 37.3229 76.0508 37.4466 76.0117 37.5898C75.9857 37.7201 75.8815 37.7917 75.6992 37.8047C75.6081 37.8047 75.5104 37.8633 75.4062 37.9805C75.3021 38.0977 75.1979 38.2214 75.0938 38.3516C74.9896 38.4948 74.8854 38.625 74.7812 38.7422C74.6901 38.8724 74.6055 38.9505 74.5273 38.9766C74.2669 39.0547 74.0651 39.0938 73.9219 39.0938C73.7396 39.0938 73.5638 39.0221 73.3945 38.8789C73.2383 38.7357 73.1016 38.5729 72.9844 38.3906C72.8672 38.2214 72.7695 38.0521 72.6914 37.8828C72.6263 37.7135 72.5938 37.5964 72.5938 37.5312C72.5938 37.1797 72.6068 36.7956 72.6328 36.3789C72.6589 35.9622 72.6914 35.5521 72.7305 35.1484C72.7826 34.7318 72.8477 34.3477 72.9258 33.9961C73.0039 33.6445 73.1016 33.3581 73.2188 33.1367C73.2839 32.9935 73.3164 32.7917 73.3164 32.5312C73.3164 32.4401 73.3099 32.349 73.2969 32.2578C73.2969 32.1536 73.2969 32.0495 73.2969 31.9453C73.2969 31.7891 73.3099 31.6393 73.3359 31.4961C73.375 31.3398 73.4141 31.1641 73.4531 30.9688C73.5052 30.7734 73.5573 30.5456 73.6094 30.2852C73.6745 30.0247 73.7331 29.7122 73.7852 29.3477C73.8112 29.1003 73.8307 28.8529 73.8438 28.6055C73.8698 28.3581 73.9023 28.1172 73.9414 27.8828C74.0065 27.5182 74.0781 27.1276 74.1562 26.7109C74.2474 26.2943 74.293 25.8581 74.293 25.4023C74.293 25.3503 74.293 25.2786 74.293 25.1875C74.293 25.0964 74.2865 25.0117 74.2734 24.9336C74.2604 24.8424 74.2409 24.7643 74.2148 24.6992C74.2018 24.6341 74.1758 24.6016 74.1367 24.6016C74.0326 24.6016 73.9284 24.6602 73.8242 24.7773C73.7201 24.8945 73.6159 25.0312 73.5117 25.1875C73.4076 25.3438 73.3034 25.5 73.1992 25.6562C73.1081 25.8125 73.0169 25.9297 72.9258 26.0078C72.7956 26.125 72.6263 26.2227 72.418 26.3008C72.2227 26.3789 72.0534 26.4701 71.9102 26.5742C71.8581 26.6133 71.819 26.6719 71.793 26.75C71.7669 26.8151 71.7344 26.8802 71.6953 26.9453C71.6562 27.0104 71.5977 27.069 71.5195 27.1211C71.4544 27.1732 71.3568 27.1992 71.2266 27.1992C71.1745 27.1992 71.1224 27.1927 71.0703 27.1797C71.0312 27.1536 71.0117 27.0885 71.0117 26.9844C71.0117 26.737 71.1029 26.5286 71.2852 26.3594C71.4805 26.1771 71.6367 26.0078 71.7539 25.8516C71.806 25.7865 71.8255 25.7148 71.8125 25.6367C71.8125 25.5456 71.8451 25.4674 71.9102 25.4023C71.9753 25.3372 72.0794 25.2591 72.2227 25.168C72.3659 25.0768 72.5026 24.9661 72.6328 24.8359C72.6849 24.7708 72.7109 24.6992 72.7109 24.6211C72.7109 24.5299 72.7305 24.4518 72.7695 24.3867C72.8477 24.3086 72.9779 24.224 73.1602 24.1328C73.3555 24.0417 73.5182 23.9375 73.6484 23.8203C73.6875 23.7812 73.7396 23.7161 73.8047 23.625C73.8698 23.5208 73.9414 23.4232 74.0195 23.332C74.0977 23.2279 74.1758 23.1367 74.2539 23.0586C74.3451 22.9805 74.4362 22.9414 74.5273 22.9414C74.5924 22.9414 74.6641 22.8893 74.7422 22.7852C74.8333 22.668 74.9245 22.5378 75.0156 22.3945C75.1068 22.2383 75.1979 22.0885 75.2891 21.9453C75.3802 21.8021 75.4648 21.6979 75.543 21.6328C75.6341 21.5547 75.7578 21.4961 75.9141 21.457C76.0703 21.4049 76.2396 21.3789 76.4219 21.3789C76.6302 21.3789 76.8125 21.418 76.9688 21.4961C77.125 21.5612 77.2031 21.6979 77.2031 21.9062C77.2031 21.9974 77.1901 22.1146 77.1641 22.2578C77.151 22.401 77.1315 22.5443 77.1055 22.6875C77.0794 22.8307 77.0534 22.974 77.0273 23.1172C77.0143 23.2474 77.0078 23.3451 77.0078 23.4102C77.0078 23.5273 77.0208 23.6185 77.0469 23.6836C77.0859 23.7487 77.1055 23.8268 77.1055 23.918C77.1055 23.9701 77.0664 24.0807 76.9883 24.25C76.9102 24.4193 76.8255 24.6276 76.7344 24.875C76.6562 25.1094 76.5781 25.3763 76.5 25.6758C76.4219 25.9622 76.3828 26.2487 76.3828 26.5352C76.3828 26.7305 76.3893 26.9128 76.4023 27.082C76.4154 27.2513 76.4219 27.4206 76.4219 27.5898C76.4219 27.9023 76.3763 28.1953 76.2852 28.4688C76.2721 28.4948 76.2396 28.5208 76.1875 28.5469C76.1484 28.5599 76.1289 28.599 76.1289 28.6641C76.1289 28.7161 76.1354 28.7943 76.1484 28.8984C76.1615 28.9896 76.168 29.0938 76.168 29.2109C76.168 29.3542 76.1484 29.4518 76.1094 29.5039C76.0833 29.543 76.0443 29.5755 75.9922 29.6016C75.9531 29.6146 75.9141 29.6341 75.875 29.6602C75.849 29.6862 75.8359 29.7513 75.8359 29.8555C75.8359 29.9727 75.8555 30.0898 75.8945 30.207C75.9466 30.3112 75.9727 30.4674 75.9727 30.6758C75.9727 30.8581 75.9401 31.0729 75.875 31.3203C75.8099 31.5677 75.7383 31.8542 75.6602 32.1797C75.582 32.5052 75.5104 32.8698 75.4453 33.2734C75.3802 33.6641 75.3477 34.0938 75.3477 34.5625C75.3477 34.9661 75.3607 35.2982 75.3867 35.5586C75.4258 35.806 75.4974 35.9297 75.6016 35.9297C75.7969 35.9297 76.0247 35.819 76.2852 35.5977C76.5586 35.3633 76.8451 35.0638 77.1445 34.6992C77.444 34.3216 77.7435 33.9115 78.043 33.4688C78.3555 33.013 78.6419 32.5638 78.9023 32.1211C79.1758 31.6654 79.4102 31.2487 79.6055 30.8711C79.8138 30.4805 79.9701 30.168 80.0742 29.9336C80.3737 29.2174 80.6536 28.5143 80.9141 27.8242C81.1875 27.1341 81.4935 26.3789 81.832 25.5586C81.8581 25.4544 81.8711 25.3503 81.8711 25.2461C81.8711 25.1289 81.8711 25.0117 81.8711 24.8945V24.4453C81.8711 24.1589 81.9102 23.944 81.9883 23.8008C82.0794 23.6576 82.1901 23.5534 82.3203 23.4883C82.4635 23.4102 82.6198 23.3516 82.7891 23.3125C82.9583 23.2604 83.1211 23.1823 83.2773 23.0781C83.4596 22.9609 83.6354 22.8242 83.8047 22.668C83.974 22.5117 84.1367 22.362 84.293 22.2188C84.4622 22.0755 84.625 21.9518 84.7812 21.8477C84.9505 21.7305 85.1328 21.6589 85.3281 21.6328C85.3281 21.7109 85.3086 21.7826 85.2695 21.8477C85.2305 21.8997 85.1849 21.9648 85.1328 22.043C85.0807 22.1081 85.0286 22.1862 84.9766 22.2773C84.9245 22.3685 84.8919 22.4922 84.8789 22.6484C84.8659 22.7656 84.8333 22.9349 84.7812 23.1562C84.7422 23.3646 84.6771 23.5859 84.5859 23.8203C84.5729 23.8464 84.5469 23.8594 84.5078 23.8594C84.4688 23.8464 84.4492 23.8789 84.4492 23.957C84.4362 24.1133 84.4167 24.3802 84.3906 24.7578C84.3646 25.1354 84.332 25.5 84.293 25.8516C84.2669 26.099 84.1888 26.3594 84.0586 26.6328C83.9284 26.8932 83.8568 27.1732 83.8438 27.4727C83.8438 27.5378 83.8503 27.5768 83.8633 27.5898C83.8893 27.6029 83.9023 27.6354 83.9023 27.6875C83.9023 27.8438 83.8438 28 83.7266 28.1562C83.6224 28.2995 83.5703 28.4232 83.5703 28.5273C83.5703 28.6966 83.5898 28.8789 83.6289 29.0742C83.681 29.2695 83.707 29.4583 83.707 29.6406C83.707 29.862 83.668 30.0768 83.5898 30.2852C83.5117 30.4805 83.4531 30.7018 83.4141 30.9492C83.362 31.1966 83.3359 31.444 83.3359 31.6914C83.3359 31.9388 83.3164 32.1797 83.2773 32.4141C83.1992 32.8958 83.1081 33.3646 83.0039 33.8203C82.8997 34.263 82.8477 34.6341 82.8477 34.9336C82.8477 35.0898 82.8672 35.2396 82.9062 35.3828C82.9453 35.513 82.9844 35.6302 83.0234 35.7344C83.0755 35.8385 83.1146 35.9232 83.1406 35.9883C83.1797 36.0534 83.1992 36.0859 83.1992 36.0859C83.2904 36.0859 83.4076 36.0534 83.5508 35.9883C83.694 35.9102 83.8307 35.8255 83.9609 35.7344C84.0911 35.6432 84.2018 35.5521 84.293 35.4609C84.3971 35.3698 84.4492 35.3047 84.4492 35.2656C84.4492 35.2396 84.4427 35.2135 84.4297 35.1875C84.4297 35.1484 84.4297 35.1159 84.4297 35.0898C84.4297 35.0117 84.4818 34.9661 84.5859 34.9531C84.6901 34.9401 84.7422 34.8945 84.7422 34.8164C84.7422 34.7904 84.7357 34.7578 84.7227 34.7188C84.7227 34.6797 84.7227 34.6471 84.7227 34.6211C84.7227 34.569 84.7552 34.4974 84.8203 34.4062C84.8984 34.3151 84.9766 34.224 85.0547 34.1328C85.1458 34.0286 85.2305 33.944 85.3086 33.8789C85.3867 33.8008 85.4388 33.7487 85.4648 33.7227C85.4909 33.6966 85.5104 33.651 85.5234 33.5859C85.5495 33.5208 85.582 33.4557 85.6211 33.3906C85.6732 33.3125 85.7448 33.2474 85.8359 33.1953C85.9271 33.1432 86.0508 33.1172 86.207 33.1172C86.2331 33.1172 86.2526 33.1237 86.2656 33.1367C86.2917 33.1367 86.3177 33.1367 86.3438 33.1367ZM98.2773 22.8047V22.8633C98.2773 22.9674 98.2057 23.1497 98.0625 23.4102C97.9323 23.6576 97.776 23.9115 97.5938 24.1719C97.4115 24.4193 97.2227 24.6406 97.0273 24.8359C96.8451 25.0312 96.6953 25.1289 96.5781 25.1289C96.3828 25.1289 96.2266 25.0768 96.1094 24.9727C95.9922 24.8555 95.8945 24.7188 95.8164 24.5625C95.7383 24.4062 95.6536 24.25 95.5625 24.0938C95.4844 23.9245 95.3737 23.7812 95.2305 23.6641C95.2044 23.651 95.1393 23.612 95.0352 23.5469C94.944 23.4818 94.8398 23.4167 94.7227 23.3516C94.6185 23.2865 94.5143 23.2279 94.4102 23.1758C94.306 23.1237 94.2344 23.0977 94.1953 23.0977C93.9609 23.0977 93.7656 23.1432 93.6094 23.2344C93.4661 23.3255 93.3424 23.4492 93.2383 23.6055C93.1471 23.7487 93.0625 23.918 92.9844 24.1133C92.9062 24.2956 92.8216 24.4844 92.7305 24.6797C92.6654 24.8229 92.5547 24.9987 92.3984 25.207C92.2422 25.4023 92.1576 25.5977 92.1445 25.793C92.1445 25.819 92.1445 25.8516 92.1445 25.8906C92.1576 25.9297 92.1641 25.9622 92.1641 25.9883C92.1641 26.0013 92.1185 26.0599 92.0273 26.1641C91.9492 26.2682 91.8971 26.3594 91.8711 26.4375C91.806 26.5938 91.7539 26.7891 91.7148 27.0234C91.6888 27.2578 91.6562 27.5052 91.6172 27.7656C91.5911 28.026 91.5586 28.2865 91.5195 28.5469C91.4935 28.7943 91.4609 29.0156 91.4219 29.2109C91.4089 29.263 91.3763 29.3737 91.3242 29.543C91.2721 29.6992 91.2201 29.8815 91.168 30.0898C91.1159 30.2982 91.0638 30.5195 91.0117 30.7539C90.9727 30.9883 90.9531 31.2031 90.9531 31.3984C90.9531 31.5938 90.9596 31.7826 90.9727 31.9648C90.9857 32.1341 90.9922 32.2904 90.9922 32.4336C90.9922 32.694 90.9661 32.9805 90.9141 33.293C90.875 33.5924 90.8555 33.9049 90.8555 34.2305C90.8555 34.4258 90.875 34.6276 90.9141 34.8359C90.9661 35.0312 90.9922 35.2266 90.9922 35.4219C90.9922 35.487 90.9857 35.5521 90.9727 35.6172C90.9596 35.6693 90.9531 35.7279 90.9531 35.793C90.9531 35.832 90.9661 35.8776 90.9922 35.9297C90.9922 35.9557 91.0247 36.0013 91.0898 36.0664C91.1549 36.1185 91.2331 36.1771 91.3242 36.2422C91.4154 36.3073 91.513 36.3659 91.6172 36.418C91.7214 36.4701 91.819 36.4961 91.9102 36.4961C92.0404 36.4961 92.2096 36.431 92.418 36.3008C92.6263 36.1576 92.8411 35.9948 93.0625 35.8125C93.2839 35.6172 93.4922 35.4219 93.6875 35.2266C93.8958 35.0312 94.0651 34.875 94.1953 34.7578C94.3646 34.6016 94.5273 34.4518 94.6836 34.3086C94.8529 34.1523 95.0352 33.9635 95.2305 33.7422C95.2435 33.7161 95.2891 33.6901 95.3672 33.6641C95.4453 33.638 95.4909 33.612 95.5039 33.5859C95.582 33.4297 95.6341 33.332 95.6602 33.293C95.6992 33.2539 95.7904 33.1562 95.9336 33C96.0117 32.9219 96.0964 32.8112 96.1875 32.668C96.2917 32.5247 96.4023 32.3815 96.5195 32.2383C96.6497 32.082 96.7799 31.9518 96.9102 31.8477C97.0534 31.7435 97.1966 31.6914 97.3398 31.6914C97.3919 31.6914 97.4635 31.7109 97.5547 31.75C97.6589 31.7891 97.7109 31.8802 97.7109 32.0234C97.7109 32.1667 97.6719 32.2904 97.5938 32.3945C97.5156 32.4987 97.418 32.5964 97.3008 32.6875C97.1966 32.7656 97.0859 32.8438 96.9688 32.9219C96.8516 33 96.7539 33.0781 96.6758 33.1562C96.5716 33.2604 96.4935 33.3841 96.4414 33.5273C96.3893 33.6576 96.3242 33.7747 96.2461 33.8789C96.0117 34.1784 95.7253 34.4714 95.3867 34.7578C95.0482 35.0443 94.7487 35.3307 94.4883 35.6172C94.2409 35.8776 94.013 36.1445 93.8047 36.418C93.6094 36.6784 93.3555 36.9062 93.043 37.1016C92.9909 37.1276 92.9128 37.1471 92.8086 37.1602C92.7174 37.1732 92.6458 37.1992 92.5938 37.2383C92.4766 37.3294 92.3724 37.4596 92.2812 37.6289C92.2031 37.7852 92.112 37.8958 92.0078 37.9609C91.9036 38.0391 91.7214 38.1107 91.4609 38.1758C91.2135 38.2539 91.0117 38.332 90.8555 38.4102C90.8164 38.4232 90.7839 38.4688 90.7578 38.5469C90.7448 38.625 90.7253 38.6706 90.6992 38.6836C90.6732 38.6966 90.6146 38.7096 90.5234 38.7227C90.4323 38.7487 90.3281 38.7682 90.2109 38.7812C90.1068 38.7943 90.0026 38.8073 89.8984 38.8203C89.7943 38.8333 89.7227 38.8398 89.6836 38.8398C89.6445 38.8398 89.5729 38.8138 89.4688 38.7617C89.3776 38.7227 89.2799 38.6771 89.1758 38.625C89.0846 38.5729 89 38.5208 88.9219 38.4688C88.8438 38.4297 88.8047 38.4102 88.8047 38.4102C88.7005 38.293 88.6419 38.1628 88.6289 38.0195C88.6289 37.8763 88.5898 37.7135 88.5117 37.5312C88.3294 37.1406 88.1797 36.7826 88.0625 36.457C87.9583 36.1315 87.9062 35.7474 87.9062 35.3047C87.9062 35.2266 87.9062 35.1224 87.9062 34.9922C87.9193 34.862 87.9323 34.7253 87.9453 34.582C87.9714 34.4388 88.0039 34.3021 88.043 34.1719C88.0951 34.0417 88.1536 33.944 88.2188 33.8789C88.2188 33.7617 88.1927 33.6445 88.1406 33.5273C88.0885 33.3971 88.0625 33.2734 88.0625 33.1562C88.0755 33.0391 88.1016 32.9154 88.1406 32.7852C88.1797 32.6549 88.2057 32.5312 88.2188 32.4141C88.2318 32.1927 88.2513 31.9518 88.2773 31.6914C88.3034 31.418 88.3359 31.1445 88.375 30.8711C88.4141 30.5977 88.4661 30.3307 88.5312 30.0703C88.6094 29.8099 88.7005 29.5755 88.8047 29.3672C88.8307 29.3021 88.8438 29.2044 88.8438 29.0742V28.8789C88.8438 28.6966 88.8893 28.4948 88.9805 28.2734C89.0846 28.0521 89.2018 27.8307 89.332 27.6094C89.4753 27.388 89.6185 27.1797 89.7617 26.9844C89.9049 26.776 90.0221 26.5938 90.1133 26.4375C90.1393 26.3854 90.1589 26.3203 90.1719 26.2422C90.1849 26.151 90.2109 26.0729 90.25 26.0078C90.276 25.9688 90.3216 25.9427 90.3867 25.9297C90.4648 25.9167 90.5169 25.8906 90.543 25.8516C90.7643 25.5781 90.9922 25.3047 91.2266 25.0312C91.4609 24.7448 91.6758 24.4388 91.8711 24.1133C91.9232 24.0221 91.9688 23.918 92.0078 23.8008C92.0469 23.6706 92.0924 23.5469 92.1445 23.4297C92.1966 23.3125 92.2617 23.2083 92.3398 23.1172C92.431 23.026 92.5612 22.9674 92.7305 22.9414C92.7435 22.9414 92.7826 22.9089 92.8477 22.8438C92.9258 22.7656 93.0104 22.681 93.1016 22.5898C93.2057 22.4857 93.3034 22.388 93.3945 22.2969C93.4857 22.1927 93.5573 22.1146 93.6094 22.0625C93.7656 21.9193 93.9284 21.7565 94.0977 21.5742C94.2799 21.3919 94.4688 21.2161 94.6641 21.0469C94.8594 20.8776 95.0482 20.7409 95.2305 20.6367C95.4258 20.5195 95.6081 20.4609 95.7773 20.4609C96.1029 20.4609 96.3633 20.5651 96.5586 20.7734C96.7669 20.9818 97.0013 21.2161 97.2617 21.4766C97.3138 21.5417 97.3984 21.6263 97.5156 21.7305C97.6328 21.8346 97.7435 21.9518 97.8477 22.082C97.9648 22.2122 98.0625 22.3424 98.1406 22.4727C98.2318 22.6029 98.2773 22.7135 98.2773 22.8047ZM112.164 32.8633C112.255 32.9544 112.301 33.0586 112.301 33.1758C112.301 33.3711 112.242 33.5469 112.125 33.7031C112.008 33.8464 111.858 33.9896 111.676 34.1328C111.507 34.263 111.318 34.3997 111.109 34.543C110.914 34.6862 110.732 34.8555 110.562 35.0508C110.341 35.3112 110.081 35.6107 109.781 35.9492C109.495 36.2747 109.267 36.6068 109.098 36.9453C109.072 37.0104 108.987 37.1341 108.844 37.3164C108.714 37.4987 108.551 37.694 108.355 37.9023C108.173 38.1107 107.965 38.293 107.73 38.4492C107.509 38.6055 107.294 38.6836 107.086 38.6836C106.943 38.6836 106.799 38.6576 106.656 38.6055C106.526 38.5664 106.402 38.5078 106.285 38.4297C106.168 38.3646 106.07 38.2865 105.992 38.1953C105.927 38.1172 105.895 38.0391 105.895 37.9609C105.895 37.8438 105.94 37.7266 106.031 37.6094C106.135 37.4922 106.188 37.3099 106.188 37.0625C106.188 36.9974 106.174 36.9518 106.148 36.9258C106.135 36.8997 106.116 36.8672 106.09 36.8281C106.077 36.7891 106.064 36.737 106.051 36.6719C106.038 36.6068 106.031 36.5026 106.031 36.3594C106.031 36.2161 106.051 36.0664 106.09 35.9102C106.142 35.7409 106.194 35.5716 106.246 35.4023C106.311 35.2201 106.363 35.0443 106.402 34.875C106.454 34.6927 106.48 34.5169 106.48 34.3477C106.48 34.3086 106.474 34.2695 106.461 34.2305C106.461 34.1784 106.461 34.1328 106.461 34.0938C106.461 34.0156 106.48 33.8984 106.52 33.7422C106.559 33.5859 106.604 33.4167 106.656 33.2344C106.708 33.0521 106.754 32.8568 106.793 32.6484C106.832 32.4271 106.852 32.2188 106.852 32.0234C106.852 31.776 106.826 31.5677 106.773 31.3984C106.63 31.4505 106.507 31.5286 106.402 31.6328C106.298 31.724 106.201 31.8346 106.109 31.9648C106.031 32.082 105.947 32.2122 105.855 32.3555C105.777 32.4857 105.693 32.6094 105.602 32.7266C105.549 32.7917 105.458 32.8763 105.328 32.9805C105.198 33.0846 105.061 33.1953 104.918 33.3125C104.788 33.4297 104.671 33.5469 104.566 33.6641C104.462 33.7682 104.41 33.8529 104.41 33.918C104.41 33.944 104.417 33.9766 104.43 34.0156C104.443 34.0547 104.449 34.0872 104.449 34.1133C104.449 34.1523 104.417 34.2109 104.352 34.2891C104.286 34.3672 104.215 34.4518 104.137 34.543C104.072 34.6211 104.007 34.6992 103.941 34.7773C103.876 34.8424 103.844 34.888 103.844 34.9141C103.831 35.0573 103.72 35.194 103.512 35.3242C103.303 35.4414 103.121 35.5911 102.965 35.7734C102.848 35.9036 102.75 36.0404 102.672 36.1836C102.594 36.3268 102.522 36.457 102.457 36.5742C102.392 36.6914 102.327 36.7891 102.262 36.8672C102.197 36.9323 102.118 36.9648 102.027 36.9648C102.001 36.9648 101.956 36.9583 101.891 36.9453C101.839 36.9323 101.793 36.9258 101.754 36.9258C101.663 36.9258 101.604 36.9844 101.578 37.1016C101.565 37.2188 101.546 37.3099 101.52 37.375C101.415 37.5443 101.292 37.6745 101.148 37.7656C101.018 37.8438 100.849 37.9609 100.641 38.1172C100.549 38.1823 100.484 38.2539 100.445 38.332C100.419 38.4232 100.38 38.5013 100.328 38.5664C100.276 38.6315 100.191 38.6836 100.074 38.7227C99.9701 38.7747 99.8008 38.8008 99.5664 38.8008C99.4362 38.8008 99.3125 38.7878 99.1953 38.7617C99.0781 38.7357 99.0195 38.6966 99.0195 38.6445C99.0195 38.6185 99.026 38.5859 99.0391 38.5469C99.0521 38.5078 99.0586 38.4753 99.0586 38.4492C99.0586 38.4362 99.0326 38.4102 98.9805 38.3711C98.9284 38.332 98.8633 38.2734 98.7852 38.1953C98.7201 38.1302 98.6615 38.0391 98.6094 37.9219C98.5573 37.7917 98.5312 37.6354 98.5312 37.4531C98.5312 37.2448 98.5508 37.0299 98.5898 36.8086C98.6419 36.5742 98.694 36.3464 98.7461 36.125C98.8112 35.9036 98.8698 35.6953 98.9219 35.5C98.974 35.2917 99.013 35.0964 99.0391 34.9141C99.0911 34.4844 99.1172 34.0482 99.1172 33.6055C99.1172 33.1628 99.1888 32.7656 99.332 32.4141C99.3971 32.2839 99.4688 32.1081 99.5469 31.8867C99.625 31.6654 99.6966 31.4049 99.7617 31.1055C99.7747 31.0273 99.7943 30.9167 99.8203 30.7734C99.8464 30.6172 99.8789 30.4479 99.918 30.2656C99.957 30.0833 99.9961 29.901 100.035 29.7188C100.087 29.5234 100.146 29.3542 100.211 29.2109C100.237 29.1719 100.283 29.1263 100.348 29.0742C100.426 29.0091 100.478 28.957 100.504 28.918C100.53 28.8398 100.543 28.7552 100.543 28.6641C100.556 28.5599 100.589 28.4557 100.641 28.3516C100.667 28.2995 100.719 28.2474 100.797 28.1953C100.875 28.1302 100.921 28.0781 100.934 28.0391C100.999 27.9219 101.044 27.7786 101.07 27.6094C101.096 27.4401 101.148 27.2969 101.227 27.1797C101.279 27.1016 101.37 27.0365 101.5 26.9844C101.63 26.9193 101.734 26.8346 101.812 26.7305C101.878 26.6393 101.923 26.5417 101.949 26.4375C101.988 26.3333 102.034 26.2422 102.086 26.1641C102.229 26.0078 102.346 25.8711 102.438 25.7539C102.542 25.6237 102.633 25.5065 102.711 25.4023C102.802 25.2982 102.887 25.2005 102.965 25.1094C103.043 25.0182 103.141 24.9271 103.258 24.8359C103.336 24.7839 103.427 24.6862 103.531 24.543C103.648 24.3997 103.753 24.3021 103.844 24.25C103.948 24.2109 104.039 24.1784 104.117 24.1523C104.208 24.1263 104.312 24.0677 104.43 23.9766C104.456 23.9505 104.482 23.8984 104.508 23.8203C104.534 23.7292 104.56 23.6771 104.586 23.6641C104.677 23.625 104.762 23.5924 104.84 23.5664C104.931 23.5404 105.035 23.4753 105.152 23.3711C105.296 23.2409 105.406 23.1107 105.484 22.9805C105.562 22.8503 105.654 22.7396 105.758 22.6484C105.862 22.5703 105.979 22.5182 106.109 22.4922C106.24 22.4661 106.357 22.4206 106.461 22.3555C106.656 22.2513 106.852 22.1146 107.047 21.9453C107.255 21.763 107.47 21.5872 107.691 21.418C107.913 21.2357 108.141 21.0859 108.375 20.9688C108.622 20.8385 108.876 20.7734 109.137 20.7734C109.306 20.7734 109.475 20.7604 109.645 20.7344C109.827 20.6953 109.996 20.6758 110.152 20.6758C110.296 20.6758 110.426 20.7018 110.543 20.7539C110.66 20.806 110.719 20.9167 110.719 21.0859C110.719 21.5807 110.66 22.1341 110.543 22.7461C110.426 23.3581 110.296 24.0156 110.152 24.7188C110.022 25.4219 109.898 26.1641 109.781 26.9453C109.677 27.7266 109.625 28.5339 109.625 29.3672C109.625 29.3932 109.632 29.4323 109.645 29.4844C109.671 29.5365 109.684 29.6146 109.684 29.7188C109.684 29.7969 109.664 29.8945 109.625 30.0117C109.599 30.1159 109.566 30.2266 109.527 30.3438C109.488 30.4479 109.449 30.5521 109.41 30.6562C109.384 30.7604 109.371 30.8516 109.371 30.9297C109.371 31.0599 109.371 31.1901 109.371 31.3203C109.384 31.4505 109.391 31.5677 109.391 31.6719C109.391 31.8932 109.365 32.1406 109.312 32.4141C109.26 32.6875 109.195 32.974 109.117 33.2734C109.052 33.5599 108.993 33.8464 108.941 34.1328C108.889 34.4193 108.863 34.6862 108.863 34.9336C108.863 35.0638 108.87 35.1875 108.883 35.3047C108.896 35.4089 108.922 35.513 108.961 35.6172C109.13 35.5391 109.267 35.4414 109.371 35.3242C109.488 35.207 109.592 35.0768 109.684 34.9336C109.788 34.7773 109.892 34.6146 109.996 34.4453C110.1 34.263 110.237 34.0742 110.406 33.8789C110.471 33.8008 110.562 33.6966 110.68 33.5664C110.797 33.4362 110.921 33.3125 111.051 33.1953C111.181 33.0781 111.318 32.974 111.461 32.8828C111.604 32.7917 111.741 32.7461 111.871 32.7461C111.962 32.7461 112.06 32.7852 112.164 32.8633ZM107.633 22.8047C107.594 22.8047 107.555 22.8047 107.516 22.8047C107.477 22.7917 107.444 22.7852 107.418 22.7852C107.223 22.7852 107.073 22.8438 106.969 22.9609C106.878 23.0651 106.799 23.1172 106.734 23.1172C106.708 23.1172 106.676 23.1172 106.637 23.1172C106.598 23.1042 106.559 23.0977 106.52 23.0977C106.454 23.0977 106.422 23.1367 106.422 23.2148C106.422 23.2799 106.389 23.332 106.324 23.3711C106.272 23.4362 106.201 23.4688 106.109 23.4688C106.018 23.4557 105.947 23.4753 105.895 23.5273C105.829 23.5924 105.764 23.6966 105.699 23.8398C105.647 23.9701 105.562 24.1068 105.445 24.25C105.341 24.3672 105.211 24.4714 105.055 24.5625C104.911 24.6536 104.801 24.7448 104.723 24.8359C104.697 24.888 104.671 24.9661 104.645 25.0703C104.632 25.1615 104.612 25.2331 104.586 25.2852C104.482 25.4674 104.352 25.6888 104.195 25.9492C104.052 26.1966 103.896 26.457 103.727 26.7305C103.557 27.0039 103.388 27.2708 103.219 27.5312C103.062 27.7786 102.932 28 102.828 28.1953C102.724 28.3776 102.652 28.5924 102.613 28.8398C102.574 29.0872 102.542 29.3477 102.516 29.6211C102.503 29.8815 102.49 30.1354 102.477 30.3828C102.464 30.6172 102.438 30.8125 102.398 30.9688C102.151 31.8281 101.917 32.694 101.695 33.5664C101.487 34.4258 101.383 35.2591 101.383 36.0664C101.656 36.0273 101.865 35.9232 102.008 35.7539C102.164 35.5716 102.288 35.3698 102.379 35.1484C102.47 34.9271 102.555 34.7122 102.633 34.5039C102.711 34.2956 102.822 34.1393 102.965 34.0352C103.069 33.9701 103.173 33.8789 103.277 33.7617C103.395 33.6445 103.492 33.5339 103.57 33.4297C103.609 33.3776 103.629 33.3125 103.629 33.2344C103.629 33.1432 103.655 33.0651 103.707 33C103.785 32.9089 103.876 32.8112 103.98 32.707C104.098 32.6029 104.215 32.4987 104.332 32.3945C104.449 32.2904 104.553 32.1927 104.645 32.1016C104.749 31.9974 104.827 31.9128 104.879 31.8477C104.931 31.7826 104.957 31.6849 104.957 31.5547C104.97 31.4115 104.99 31.3073 105.016 31.2422C105.146 30.9948 105.289 30.7734 105.445 30.5781C105.602 30.3698 105.751 30.1549 105.895 29.9336C106.129 29.569 106.324 29.2109 106.48 28.8594C106.65 28.5078 106.793 28.1497 106.91 27.7852C107.027 27.4206 107.132 27.0495 107.223 26.6719C107.314 26.2812 107.405 25.8646 107.496 25.4219C107.548 25.1615 107.607 24.8815 107.672 24.582C107.75 24.2826 107.789 23.9766 107.789 23.6641C107.789 23.3385 107.737 23.0521 107.633 22.8047ZM119.859 22.0625C119.833 22.1667 119.768 22.362 119.664 22.6484C119.56 22.9219 119.482 23.2083 119.43 23.5078C119.352 23.9505 119.319 24.3867 119.332 24.8164C119.345 25.2461 119.332 25.6432 119.293 26.0078C119.228 26.5026 119.13 26.9844 119 27.4531C118.883 27.9219 118.785 28.4036 118.707 28.8984C118.629 29.3542 118.564 29.6927 118.512 29.9141C118.473 30.1354 118.434 30.3307 118.395 30.5C118.368 30.6693 118.349 30.8516 118.336 31.0469C118.323 31.2422 118.316 31.5286 118.316 31.9062C118.316 32.0495 118.316 32.1797 118.316 32.2969C118.329 32.401 118.336 32.5052 118.336 32.6094C118.336 32.7917 118.297 32.9674 118.219 33.1367C118.141 33.293 118.102 33.4622 118.102 33.6445C118.102 33.7878 118.115 33.9375 118.141 34.0938C118.167 34.25 118.18 34.4062 118.18 34.5625C118.18 34.7057 118.16 34.8164 118.121 34.8945C118.095 34.9727 118.056 35.0312 118.004 35.0703C117.965 35.1094 117.919 35.1419 117.867 35.168C117.828 35.181 117.789 35.2135 117.75 35.2656C117.698 35.3568 117.639 35.4935 117.574 35.6758C117.522 35.8451 117.483 35.9492 117.457 35.9883C117.392 36.0664 117.301 36.1185 117.184 36.1445C117.066 36.1706 116.962 36.2161 116.871 36.2812C116.676 36.4375 116.454 36.6589 116.207 36.9453C115.973 37.2188 115.738 37.4987 115.504 37.7852C115.283 38.0586 115.074 38.293 114.879 38.4883C114.684 38.6966 114.534 38.8008 114.43 38.8008C114.365 38.8008 114.312 38.7878 114.273 38.7617C114.247 38.7487 114.234 38.6966 114.234 38.6055C114.234 38.4883 114.267 38.3841 114.332 38.293C114.397 38.2018 114.469 38.1042 114.547 38C114.638 37.9089 114.723 37.8112 114.801 37.707C114.892 37.5898 114.957 37.4596 114.996 37.3164V37.2969C114.996 37.0365 115.042 36.8281 115.133 36.6719C115.224 36.5156 115.27 36.4049 115.27 36.3398C115.27 36.2617 115.243 36.2096 115.191 36.1836C115.139 36.1576 115.113 36.112 115.113 36.0469C115.113 35.9948 115.126 35.9232 115.152 35.832C115.191 35.7279 115.23 35.6172 115.27 35.5C115.309 35.3828 115.341 35.2656 115.367 35.1484C115.406 35.0312 115.426 34.9401 115.426 34.875C115.426 34.7188 115.406 34.5885 115.367 34.4844C115.341 34.3672 115.328 34.2435 115.328 34.1133C115.328 33.931 115.387 33.7617 115.504 33.6055C115.634 33.4492 115.699 33.319 115.699 33.2148C115.686 33.1628 115.68 33.1107 115.68 33.0586C115.68 33.0065 115.68 32.9479 115.68 32.8828C115.68 32.5573 115.712 32.2383 115.777 31.9258C115.855 31.6133 115.94 31.3203 116.031 31.0469C116.122 30.7734 116.201 30.526 116.266 30.3047C116.344 30.0833 116.383 29.9076 116.383 29.7773C116.383 29.7122 116.376 29.6667 116.363 29.6406V29.5625C116.363 29.4193 116.337 29.276 116.285 29.1328C116.246 28.9896 116.227 28.8464 116.227 28.7031C116.227 28.5729 116.266 28.4297 116.344 28.2734C116.435 28.1042 116.493 27.9284 116.52 27.7461C116.572 27.4466 116.598 27.0951 116.598 26.6914C116.598 26.2747 116.617 25.8971 116.656 25.5586C116.682 25.2852 116.741 25.0312 116.832 24.7969C116.923 24.5625 116.969 24.4258 116.969 24.3867C116.904 24.2695 116.826 24.1654 116.734 24.0742C116.643 23.9701 116.565 23.918 116.5 23.918C116.396 23.918 116.298 23.957 116.207 24.0352C116.116 24.1133 116.025 24.2109 115.934 24.3281C115.855 24.4323 115.777 24.5495 115.699 24.6797C115.621 24.7969 115.549 24.8945 115.484 24.9727C115.38 25.1029 115.217 25.2721 114.996 25.4805C114.788 25.6888 114.612 25.8646 114.469 26.0078C114.378 26.112 114.306 26.2422 114.254 26.3984C114.202 26.5417 114.085 26.6133 113.902 26.6133C113.85 26.6133 113.805 26.6068 113.766 26.5938C113.74 26.5677 113.727 26.5091 113.727 26.418C113.727 26.3008 113.753 26.1901 113.805 26.0859C113.87 25.9688 113.941 25.8581 114.02 25.7539C114.098 25.6367 114.176 25.5326 114.254 25.4414C114.345 25.3372 114.417 25.2331 114.469 25.1289C114.573 24.9206 114.742 24.6667 114.977 24.3672C115.211 24.0547 115.484 23.7227 115.797 23.3711C116.122 23.0195 116.48 22.6615 116.871 22.2969C117.275 21.9193 117.691 21.5482 118.121 21.1836C118.251 21.0794 118.342 20.9948 118.395 20.9297C118.46 20.8646 118.512 20.819 118.551 20.793C118.59 20.7539 118.629 20.7344 118.668 20.7344C118.707 20.7214 118.772 20.7148 118.863 20.7148C119.293 20.7148 119.579 20.7865 119.723 20.9297C119.866 21.0599 119.938 21.2552 119.938 21.5156C119.938 21.5938 119.931 21.6784 119.918 21.7695C119.905 21.8607 119.885 21.9583 119.859 22.0625ZM127.301 22.3359C127.288 22.4141 127.249 22.4531 127.184 22.4531H127.125C127.047 22.4531 127.008 22.4922 127.008 22.5703C127.008 22.6094 127.008 22.6484 127.008 22.6875C127.021 22.7135 127.027 22.7396 127.027 22.7656C127.027 22.8307 126.969 22.9609 126.852 23.1562C126.734 23.3516 126.565 23.5859 126.344 23.8594C126.135 24.1198 125.875 24.3932 125.562 24.6797C125.263 24.9531 124.924 25.194 124.547 25.4023C124.339 25.5195 124.104 25.6562 123.844 25.8125C123.583 25.9557 123.29 26.0273 122.965 26.0273C122.939 26.0273 122.906 26.0273 122.867 26.0273C122.841 26.0143 122.815 26.0078 122.789 26.0078C122.776 26.0078 122.717 26.0013 122.613 25.9883C122.509 25.9753 122.392 25.9622 122.262 25.9492C122.145 25.9362 122.021 25.9232 121.891 25.9102C121.76 25.8971 121.669 25.8776 121.617 25.8516C121.5 25.8125 121.37 25.6823 121.227 25.4609C121.083 25.2266 120.921 25.0182 120.738 24.8359C120.647 24.7448 120.549 24.6667 120.445 24.6016C120.341 24.5234 120.243 24.4453 120.152 24.3672C120.074 24.2891 120.003 24.2109 119.938 24.1328C119.885 24.0417 119.859 23.944 119.859 23.8398C119.898 23.8398 120.003 23.7357 120.172 23.5273C120.354 23.306 120.549 23.0716 120.758 22.8242C120.979 22.5638 121.188 22.3229 121.383 22.1016C121.578 21.8802 121.708 21.7695 121.773 21.7695C121.826 21.7695 121.871 21.7305 121.91 21.6523C121.962 21.5742 122.008 21.4896 122.047 21.3984C122.086 21.2943 122.132 21.1966 122.184 21.1055C122.236 21.0013 122.294 20.9297 122.359 20.8906C122.529 20.9036 122.646 20.9883 122.711 21.1445C122.776 21.3008 122.822 21.4896 122.848 21.7109C122.874 21.9323 122.893 22.1797 122.906 22.4531C122.932 22.7135 122.984 22.9544 123.062 23.1758C123.141 23.3971 123.271 23.5859 123.453 23.7422C123.635 23.8854 123.902 23.957 124.254 23.957C124.332 23.957 124.404 23.9505 124.469 23.9375C124.547 23.9245 124.625 23.8984 124.703 23.8594C124.781 23.8203 124.872 23.7617 124.977 23.6836C125.094 23.6055 125.237 23.5013 125.406 23.3711C125.562 23.2539 125.699 23.1172 125.816 22.9609C125.947 22.7917 126.07 22.6289 126.188 22.4727C126.318 22.3034 126.461 22.1536 126.617 22.0234C126.773 21.8932 126.956 21.8086 127.164 21.7695C127.19 21.8216 127.223 21.8867 127.262 21.9648C127.301 22.0299 127.32 22.1081 127.32 22.1992C127.32 22.2253 127.314 22.2513 127.301 22.2773C127.301 22.2904 127.301 22.3099 127.301 22.3359ZM136.363 24.1719C136.337 24.6667 136.266 25.1159 136.148 25.5195C136.044 25.9232 135.908 26.2943 135.738 26.6328C135.582 26.9714 135.406 27.2839 135.211 27.5703C135.016 27.8568 134.814 28.1367 134.605 28.4102C134.475 28.5794 134.371 28.7292 134.293 28.8594C134.215 28.9766 134.137 29.0807 134.059 29.1719C133.98 29.263 133.896 29.3411 133.805 29.4062C133.714 29.4714 133.59 29.5234 133.434 29.5625C133.329 29.5885 133.206 29.6211 133.062 29.6602C132.932 29.6862 132.815 29.7513 132.711 29.8555C132.685 29.8815 132.659 29.9336 132.633 30.0117C132.607 30.0768 132.581 30.1224 132.555 30.1484C132.451 30.2266 132.327 30.2786 132.184 30.3047C132.053 30.3177 131.936 30.3633 131.832 30.4414C131.728 30.5326 131.656 30.6107 131.617 30.6758C131.578 30.7409 131.507 30.806 131.402 30.8711C131.298 30.9362 131.174 30.9883 131.031 31.0273C130.901 31.0534 130.777 31.099 130.66 31.1641C130.569 31.2292 130.497 31.3073 130.445 31.3984C130.406 31.4766 130.335 31.5482 130.23 31.6133C130.022 31.7565 129.846 31.8672 129.703 31.9453C129.56 32.0104 129.443 32.1081 129.352 32.2383C129.273 32.3685 129.215 32.5573 129.176 32.8047C129.137 33.0521 129.117 33.4297 129.117 33.9375C129.117 34.237 129.124 34.5234 129.137 34.7969C129.163 35.0703 129.189 35.2721 129.215 35.4023C129.228 35.4414 129.267 35.5326 129.332 35.6758C129.41 35.806 129.501 35.9492 129.605 36.1055C129.723 36.2617 129.853 36.4049 129.996 36.5352C130.139 36.6523 130.289 36.7109 130.445 36.7109C130.68 36.7109 130.888 36.6263 131.07 36.457C131.253 36.2747 131.454 36.1185 131.676 35.9883C131.845 35.8841 132.066 35.7474 132.34 35.5781C132.613 35.3958 132.835 35.194 133.004 34.9727C133.056 34.8945 133.121 34.7904 133.199 34.6602C133.277 34.5169 133.362 34.3802 133.453 34.25C133.557 34.1068 133.668 33.9896 133.785 33.8984C133.915 33.7943 134.059 33.7422 134.215 33.7422C134.28 33.7422 134.365 33.7617 134.469 33.8008C134.456 34.0221 134.384 34.224 134.254 34.4062C134.137 34.5885 134 34.7578 133.844 34.9141C133.701 35.0573 133.57 35.1875 133.453 35.3047C133.336 35.4219 133.277 35.5195 133.277 35.5977C133.277 35.6237 133.277 35.6628 133.277 35.7148C133.29 35.7539 133.297 35.7865 133.297 35.8125C133.297 35.8776 133.219 35.9297 133.062 35.9688C132.919 35.9948 132.802 36.0469 132.711 36.125C132.646 36.1901 132.594 36.2682 132.555 36.3594C132.529 36.4375 132.483 36.5026 132.418 36.5547C132.275 36.6719 132.125 36.776 131.969 36.8672C131.812 36.9583 131.669 37.056 131.539 37.1602C131.396 37.2904 131.246 37.4401 131.09 37.6094C130.947 37.7786 130.803 37.9349 130.66 38.0781C130.517 38.2344 130.374 38.3646 130.23 38.4688C130.1 38.5729 129.977 38.625 129.859 38.625C129.794 38.625 129.723 38.612 129.645 38.5859C129.579 38.5729 129.514 38.5664 129.449 38.5664C129.384 38.5664 129.332 38.5924 129.293 38.6445C129.254 38.6966 129.202 38.7227 129.137 38.7227C129.02 38.7227 128.883 38.6641 128.727 38.5469C128.57 38.4427 128.44 38.3646 128.336 38.3125C128.154 38.2474 127.939 38.2018 127.691 38.1758C127.444 38.1628 127.268 38.1172 127.164 38.0391C127.073 37.9609 127.001 37.8177 126.949 37.6094C126.91 37.401 126.839 37.1992 126.734 37.0039C126.63 36.8216 126.513 36.6719 126.383 36.5547C126.253 36.4375 126.174 36.3464 126.148 36.2812C126.122 36.2031 126.103 36.099 126.09 35.9688C126.09 35.8255 126.09 35.6823 126.09 35.5391C126.09 35.3828 126.083 35.2331 126.07 35.0898C126.057 34.9336 126.031 34.7969 125.992 34.6797C125.979 34.6406 125.953 34.6081 125.914 34.582C125.875 34.543 125.855 34.4714 125.855 34.3672C125.855 34.3802 125.875 34.3542 125.914 34.2891C125.966 34.2109 125.992 34.1458 125.992 34.0938C126.057 33.0651 126.148 32.0885 126.266 31.1641C126.396 30.2266 126.559 29.3737 126.754 28.6055C126.949 27.8242 127.184 27.1471 127.457 26.5742C127.743 25.9883 128.082 25.526 128.473 25.1875C128.538 25.1354 128.609 25.1159 128.688 25.1289C128.779 25.1289 128.857 25.1029 128.922 25.0508C128.948 25.0247 128.967 24.9792 128.98 24.9141C129.007 24.8359 129.033 24.7839 129.059 24.7578C129.124 24.7057 129.195 24.6797 129.273 24.6797C129.365 24.6797 129.436 24.6536 129.488 24.6016C129.527 24.5755 129.579 24.5234 129.645 24.4453C129.71 24.3672 129.775 24.2826 129.84 24.1914C129.905 24.1003 129.97 24.0156 130.035 23.9375C130.1 23.8464 130.165 23.7812 130.23 23.7422C130.387 23.638 130.576 23.5664 130.797 23.5273C131.018 23.4883 131.22 23.4102 131.402 23.293C131.454 23.2669 131.513 23.2148 131.578 23.1367C131.643 23.0586 131.708 22.9805 131.773 22.9023C131.852 22.8112 131.923 22.7331 131.988 22.668C132.053 22.6029 132.118 22.5703 132.184 22.5703C132.21 22.5703 132.242 22.5768 132.281 22.5898C132.32 22.5898 132.353 22.5898 132.379 22.5898C132.405 22.5898 132.503 22.5117 132.672 22.3555C132.854 22.1992 133.017 22.0755 133.16 21.9844C133.199 21.9583 133.219 21.9128 133.219 21.8477C133.232 21.7695 133.258 21.7174 133.297 21.6914C133.362 21.6393 133.466 21.6003 133.609 21.5742C133.753 21.5352 133.889 21.4766 134.02 21.3984C134.124 21.3333 134.202 21.2682 134.254 21.2031C134.306 21.138 134.423 21.1055 134.605 21.1055C135.074 21.1445 135.432 21.2292 135.68 21.3594C135.927 21.4896 136.096 21.6784 136.188 21.9258C136.292 22.1602 136.344 22.4661 136.344 22.8438C136.357 23.2083 136.363 23.651 136.363 24.1719ZM133.59 24.1719C133.577 24.1458 133.525 24.1003 133.434 24.0352C133.355 23.957 133.31 23.9049 133.297 23.8789C133.258 23.8138 133.238 23.7487 133.238 23.6836C133.238 23.6055 133.232 23.5339 133.219 23.4688C133.206 23.4036 133.18 23.3516 133.141 23.3125C133.115 23.2734 133.056 23.2539 132.965 23.2539C132.887 23.2539 132.77 23.2995 132.613 23.3906C132.47 23.4688 132.314 23.5664 132.145 23.6836C131.988 23.8008 131.839 23.918 131.695 24.0352C131.552 24.1523 131.454 24.2435 131.402 24.3086C131.337 24.3867 131.246 24.5299 131.129 24.7383C131.025 24.9336 130.914 25.1354 130.797 25.3438C130.693 25.5521 130.595 25.7344 130.504 25.8906C130.413 26.0469 130.361 26.125 130.348 26.125C130.348 26.151 130.348 26.1836 130.348 26.2227C130.361 26.2617 130.367 26.2943 130.367 26.3203C130.367 26.3984 130.315 26.4701 130.211 26.5352C130.107 26.5872 130.055 26.6979 130.055 26.8672C130.055 26.9323 130.061 27.0104 130.074 27.1016C130.087 27.1797 130.094 27.2513 130.094 27.3164C130.094 27.4206 130.048 27.5247 129.957 27.6289C129.879 27.7331 129.827 27.8438 129.801 27.9609C129.684 28.3776 129.566 28.8268 129.449 29.3086C129.332 29.7773 129.273 30.2396 129.273 30.6953C129.273 30.8385 129.286 30.9622 129.312 31.0664C129.352 31.1576 129.456 31.2031 129.625 31.2031C129.742 31.2031 129.827 31.1836 129.879 31.1445C129.944 31.0924 129.996 31.0339 130.035 30.9688C130.074 30.8906 130.107 30.819 130.133 30.7539C130.159 30.6888 130.191 30.6367 130.23 30.5977C130.4 30.4414 130.595 30.2786 130.816 30.1094C131.038 29.9401 131.259 29.7643 131.48 29.582C131.715 29.3867 131.936 29.1914 132.145 28.9961C132.366 28.8008 132.555 28.6055 132.711 28.4102C132.75 28.3451 132.789 28.2409 132.828 28.0977C132.867 27.9414 132.926 27.7982 133.004 27.668C133.199 27.3294 133.349 26.8932 133.453 26.3594C133.57 25.8255 133.629 25.2396 133.629 24.6016C133.629 24.5365 133.622 24.4648 133.609 24.3867C133.609 24.3086 133.603 24.237 133.59 24.1719Z" fill="black"/>
<path d="M6.327 15.2L19 22.8L38 11.4L19 0L0 11.4H19V15.2H6.327ZM0 15.2V30.4L3.8 26.182V17.48L0 15.2ZM19 38L9.5 32.3L5.7 30.02V18.62L19 26.6L32.3 18.62V30.02L19 38Z" fill="black"/>
</svg>
